<?xml version="1.0" encoding="UTF-8" standalone="no"?>
<svg
   xmlns:dc="http://purl.org/dc/elements/1.1/"
   xmlns:cc="http://creativecommons.org/ns#"
   xmlns:rdf="http://www.w3.org/1999/02/22-rdf-syntax-ns#"
   xmlns:svg="http://www.w3.org/2000/svg"
   xmlns="http://www.w3.org/2000/svg"
   xmlns:sodipodi="http://sodipodi.sourceforge.net/DTD/sodipodi-0.dtd"
   xmlns:inkscape="http://www.inkscape.org/namespaces/inkscape"
   width="190mm"
   height="190mm"
   viewBox="0 0 190 190"
   version="1.1"
   id="svg8"
   inkscape:version="1.0.1 (3bc2e813f5, 2020-09-07)"
   sodipodi:docname="AppIcon.svg"
   inkscape:export-filename="/home/namenlos/Development/Corylus/corylus/build/icon.png"
   inkscape:export-xdpi="68.449997"
   inkscape:export-ydpi="68.449997">
  <defs
     id="defs2">
    <inkscape:path-effect
       simplifyJustCoalesce="false"
       simplifyindividualpaths="false"
       simplify_just_coalesce="false"
       simplify_individual_paths="false"
       helper_size="0"
       smooth_angles="360"
       threshold="0.0001"
       steps="1"
       is_visible="true"
       id="path-effect872"
       effect="simplify" />
    <inkscape:path-effect
       simplifyJustCoalesce="false"
       simplifyindividualpaths="false"
       simplify_just_coalesce="false"
       simplify_individual_paths="false"
       helper_size="0"
       smooth_angles="360"
       threshold="0.0001"
       steps="1"
       is_visible="true"
       id="path-effect868"
       effect="simplify" />
    <inkscape:path-effect
       effect="simplify"
       id="path-effect864"
       is_visible="true"
       steps="1"
       threshold="0.0001"
       smooth_angles="360"
       helper_size="0"
       simplify_individual_paths="false"
       simplify_just_coalesce="false"
       simplifyindividualpaths="false"
       simplifyJustCoalesce="false" />
    <inkscape:path-effect
       effect="simplify"
       id="path-effect860"
       is_visible="true"
       steps="1"
       threshold="0.0001"
       smooth_angles="360"
       helper_size="0"
       simplify_individual_paths="false"
       simplify_just_coalesce="false"
       simplifyindividualpaths="false"
       simplifyJustCoalesce="false" />
    <inkscape:path-effect
       simplifyJustCoalesce="false"
       simplifyindividualpaths="false"
       simplify_just_coalesce="false"
       simplify_individual_paths="false"
       helper_size="0"
       smooth_angles="360"
       threshold="0.0001"
       steps="1"
       is_visible="true"
       id="path-effect856"
       effect="simplify" />
    <inkscape:path-effect
       effect="simplify"
       id="path-effect852"
       is_visible="true"
       steps="1"
       threshold="0.0001"
       smooth_angles="360"
       helper_size="0"
       simplify_individual_paths="false"
       simplify_just_coalesce="false"
       simplifyindividualpaths="false"
       simplifyJustCoalesce="false" />
    <inkscape:path-effect
       simplifyJustCoalesce="false"
       simplifyindividualpaths="false"
       simplify_just_coalesce="false"
       simplify_individual_paths="false"
       helper_size="0"
       smooth_angles="360"
       threshold="0.0001"
       steps="1"
       is_visible="true"
       id="path-effect848"
       effect="simplify" />
    <inkscape:path-effect
       effect="simplify"
       id="path-effect844"
       is_visible="true"
       steps="1"
       threshold="0.0001"
       smooth_angles="360"
       helper_size="0"
       simplify_individual_paths="false"
       simplify_just_coalesce="false"
       simplifyindividualpaths="false"
       simplifyJustCoalesce="false" />
    <inkscape:path-effect
       effect="simplify"
       id="path-effect840"
       is_visible="true"
       steps="1"
       threshold="0.0001"
       smooth_angles="360"
       helper_size="0"
       simplify_individual_paths="false"
       simplify_just_coalesce="false"
       simplifyindividualpaths="false"
       simplifyJustCoalesce="false" />
    <inkscape:path-effect
       effect="simplify"
       id="path-effect836"
       is_visible="true"
       steps="1"
       threshold="0.0001"
       smooth_angles="360"
       helper_size="0"
       simplify_individual_paths="false"
       simplify_just_coalesce="false"
       simplifyindividualpaths="false"
       simplifyJustCoalesce="false" />
    <inkscape:path-effect
       effect="simplify"
       id="path-effect832"
       is_visible="true"
       steps="1"
       threshold="0.0001"
       smooth_angles="360"
       helper_size="0"
       simplify_individual_paths="false"
       simplify_just_coalesce="false"
       simplifyindividualpaths="false"
       simplifyJustCoalesce="false" />
    <inkscape:path-effect
       effect="simplify"
       id="path-effect828"
       is_visible="true"
       steps="1"
       threshold="0.0001"
       smooth_angles="360"
       helper_size="0"
       simplify_individual_paths="false"
       simplify_just_coalesce="false"
       simplifyindividualpaths="false"
       simplifyJustCoalesce="false" />
  </defs>
  <sodipodi:namedview
     id="base"
     pagecolor="#202020"
     bordercolor="#666666"
     borderopacity="1.0"
     inkscape:pageopacity="0"
     inkscape:pageshadow="2"
     inkscape:zoom="0.7"
     inkscape:cx="10.577254"
     inkscape:cy="111.32943"
     inkscape:document-units="mm"
     inkscape:current-layer="layer1"
     showgrid="false"
     inkscape:window-width="2560"
     inkscape:window-height="1361"
     inkscape:window-x="0"
     inkscape:window-y="0"
     inkscape:window-maximized="1"
     fit-margin-top="0"
     fit-margin-left="0"
     fit-margin-right="0"
     fit-margin-bottom="0"
     inkscape:document-rotation="0" />
  <metadata
     id="metadata5">
    <rdf:RDF>
      <cc:Work
         rdf:about="">
        <dc:format>image/svg+xml</dc:format>
        <dc:type
           rdf:resource="http://purl.org/dc/dcmitype/StillImage" />
        <dc:title />
      </cc:Work>
    </rdf:RDF>
  </metadata>
  <g
     inkscape:label="Ebene 1"
     inkscape:groupmode="layer"
     id="layer1"
     transform="translate(-8.8373823,-34.044873)">
    <rect
       style="color:#000000;overflow:visible;fill:#ffffff;fill-opacity:1;fill-rule:evenodd;stroke:#ffffff;stroke-width:0.894324;stroke-linecap:round"
       id="rect1843"
       width="190.05087"
       height="190.10887"
       x="9.284544"
       y="34.492035" />
    <g
       id="g886"
       transform="translate(4.1564194,-10.423907)"
       style="stroke:#646464;stroke-opacity:1">
      <path
         sodipodi:nodetypes="ccscccsscccccscscscccccc"
         inkscape:original-d="m 161.50514,188.29852 c -2.6675,16.23123 -10.073,22.52889 -30.3474,14.01844 -0.56336,10.63482 -0.59891,14.32402 -10.75778,17.70703 -11.56915,3.85264 -42.215488,0.42534 -55.880576,-10.70616 3.131764,-2.94 2.476996,-2.10541 3.131764,-2.94 -8.698731,-7.95707 -38.612486,-12.53727 -45.465843,-38.38905 9.04918,1.81062 10.156848,-0.32967 8.406249,-4.32073 -2.289615,-5.21991 -7.486206,-10.86574 -12.347829,-16.65054 -2.38603,-2.83912 -7.554557,-4.47873 -6.617893,-8.56839 7.424194,-4.73841 4.780252,-2.00259 12.837319,-6.40568 -0.762828,-7.34305 -4.073226,-10.47227 -6.946036,-15.66685 4.497726,-3.02122 4.865534,-2.20109 8.320922,-2.22399 1.565507,-3.1412 1.233502,-6.84811 1.744771,-11.25016 4.196537,-3.457106 7.594789,-6.027605 8.312268,-8.426379 3.653116,-12.213584 -3.578111,-36.92398 -3.578111,-36.92398 0,0 14.009919,17.82454 25.977136,18.365123 8.578111,0.38749 20.838132,5.502132 27.306472,-5.589631 6.588327,1.977111 7.343085,10.516894 9.491872,10.387074 2.700418,-0.163147 6.216505,-5.65364 6.606165,-8.466675 8.29782,3.959404 10.69484,11.163282 14.34324,15.023585 2.31204,-1.351453 3.72475,-1.155787 8.37676,-11.243334 9.9974,6.616799 2.99903,15.391646 11.72245,22.0919 0.63851,-0.716475 2.20278,-3.084485 3.52166,-6.059398 3.18978,5.043172 7.54227,11.808495 11.52921,22.109505"
         inkscape:path-effect="#path-effect828"
         inkscape:connector-curvature="0"
         id="path826"
         d="M 161.50514,188.29852 C 161.00876,191.28248 160.33626,194.26044 159.16698,197.05906 158.27441,199.19539 157.05829,201.23528 155.36311,202.83523 154.01133,204.11107 152.34285,205.03668 150.55687,205.54743 148.2358,206.2112 145.77648,206.22664 143.39713,205.92333 140.22505,205.51897 137.14003,204.6057 134.14793,203.49955 133.14249,203.12785 131.21742,201.2467 131.15774,202.31696 131.03331,204.54848 130.95972,206.78669 130.67897,209.00548 130.47008,210.65637 130.14326,212.32031 129.40857,213.82705 128.83131,215.01093 127.9625,216.04033 126.92924,216.85317 125.51233,217.96782 123.86372,218.74437 122.18872,219.38447 120.93126,219.86501 119.65266,220.29854 118.33663,220.59068 115.60684,221.19666 112.80871,221.44042 110.01817,221.5166 105.25697,221.64657 100.48902,221.3221 95.77367,220.66976 90.17932,219.89582 84.631786,218.69566 79.276829,216.89123 75.366424,215.57356 71.533844,213.95667 68.015881,211.78591 66.801116,211.03634 63.477783,210.29444 64.519384,209.31783 65.393944,208.49784 66.279514,207.68931 67.189021,206.90786 67.367826,206.75423 67.82482,206.53507 67.651148,206.37783 66.260422,205.11867 64.648279,204.13389 63.006802,203.24056 60.143102,201.68206 57.168729,200.34159 54.217292,198.96094 49.128828,196.58062 44.075733,194.06817 39.416304,190.91044 35.390995,188.18246 31.678307,184.94322 28.676859,181.10146 25.971399,177.63856 23.91087,173.67817 22.61293,169.47937 22.460261,168.98549 21.678053,167.88917 22.185305,167.98878 23.851979,168.31607 25.536825,168.61726 27.238731,168.6368 28.092319,168.6466 28.965709,168.60887 29.779592,168.3285 30.291727,168.15208 30.78171,167.83351 31.046163,167.34649 31.330037,166.82371 31.331726,166.19914 31.228885,165.62803 31.050205,164.63575 30.635644,163.70495 30.190362,162.80788 29.104598,160.6205 27.714171,158.60027 26.237974,156.66126 23.832824,153.50206 21.176972,150.54613 18.643215,147.49173 18.284487,147.05929 17.918516,146.63151 17.506611,146.24763 16.137848,144.972 14.498327,144.02331 13.157919,142.71555 12.494857,142.06864 11.906971,141.30236 11.649549,140.39849 11.469199,139.76524 11.071716,138.80004 11.625832,138.44912 13.004282,137.57616 14.38905,136.7071 15.8414,135.96048 16.561289,135.5904 17.313731,135.28854 18.078011,135.02376 19.085634,134.67467 20.072291,134.2671 21.035922,133.81027 22.197563,133.25957 24.593192,133.32218 24.463151,132.04344 24.240185,129.85093 23.718749,127.68554 22.869245,125.64893 22.058512,123.70527 20.939705,121.913 19.809125,120.1433 19.017852,118.90472 16.292606,117.19062 17.517115,116.37659 18.493373,115.72759 19.483585,115.08596 20.55656,114.6064 21.22326,114.30842 21.939561,114.11063 22.671584,114.07718 23.463758,114.04098 24.254604,114.12155 25.046034,114.1438 25.309959,114.15122 25.719802,114.38868 25.838037,114.1526 26.526498,112.77796 26.851221,111.25466 27.027623,109.73697 27.248319,107.83819 27.296214,105.92514 27.46794,104.02202 27.501655,103.64838 27.29375,103.14159 27.582808,102.90244 29.245364,101.52691 30.951211,100.20081 32.547975,98.748285 33.451145,97.926698 34.344329,97.077189 35.059098,96.082391 35.441126,95.550694 35.756223,94.965382 35.937389,94.332363 36.611431,91.977166 36.855089,89.52038 36.910971,87.078975 36.999504,83.21109 36.658461,79.345062 36.120668,75.518191 35.42489,70.56712 34.425538,65.66063 33.19248,60.816488 32.914571,59.724706 31.611732,56.673449 32.316965,57.552081 33.597178,59.147066 34.955948,60.678391 36.362924,62.162131 39.14009,65.090818 42.096842,67.866204 45.345555,70.267204 47.726707,72.027023 50.262428,73.618479 53.025644,74.70566 54.769964,75.391959 56.617702,75.820837 58.49582,75.927141 60.886699,76.062468 63.248936,76.476906 65.616023,76.817554 68.391265,77.21694 71.198676,77.559361 74.006999,77.378349 76.157134,77.239761 78.307427,76.742311 80.220051,75.725247 82.026005,74.764906 83.551026,73.329082 84.735435,71.669265 85.044654,71.235929 85.090016,70.176942 85.600573,70.327573 87.02392,70.747508 88.313453,71.560734 89.3647,72.603115 90.65617,73.883693 91.579943,75.472331 92.412874,77.075563 92.858804,77.933893 93.23798,78.830859 93.762556,79.644982 93.991992,80.001058 94.242415,80.367443 94.610902,80.593592 94.801672,80.710672 95.032301,80.730545 95.251577,80.699051 95.931468,80.601399 96.543047,80.242489 97.074842,79.825073 98.013959,79.087942 98.79332,78.16583 99.466975,77.185978 100.22292,76.086433 100.88281,74.910285 101.33132,73.651454 101.49374,73.19559 101.26055,72.040204 101.69861,72.247972 103.9751,73.32769 106.05082,74.813593 107.84225,76.584366 109.56304,78.285318 110.98843,80.25208 112.34715,82.246647 113.37595,83.756896 114.3483,85.314205 115.53631,86.70734 115.70018,86.899504 115.8237,87.398821 116.04185,87.271557 116.78947,86.835403 117.58728,86.478917 118.27544,85.945778 119.25132,85.189728 120.00502,84.190362 120.67006,83.161584 121.75447,81.48407 122.66537,79.701786 123.53348,77.905275 123.83446,77.282413 123.84093,75.647661 124.41861,76.028223 126.07876,77.121894 127.56996,78.5108 128.62871,80.206275 129.51675,81.628372 130.0437,83.243046 130.38166,84.877147 130.87006,87.238664 131.02624,89.669917 131.75503,91.980327 132.23972,93.516897 133.02338,94.960577 134.07518,96.184463 134.69154,96.901666 135.52309,98.835123 136.14106,98.120123 136.53657,97.662512 136.8761,97.159593 137.20189,96.651188 138.13954,95.187936 138.73123,90.594015 139.66272,92.060725 141.38678,94.775405 143.08849,97.50586 144.66502,100.30977 147.17018,104.76528 149.34996,109.40232 151.19193,114.17023"
         style="fill:none;fill-rule:evenodd;stroke:#646464;stroke-width:5;stroke-linecap:round;stroke-linejoin:miter;stroke-miterlimit:4;stroke-dasharray:none;stroke-opacity:1" />
      <path
         sodipodi:nodetypes="cscsc"
         inkscape:original-d="m 127.22029,180.60412 c -5.92495,-49.19857 24.6955,-67.88117 51.73436,-60.74798 3.73659,0.98576 4.93392,-4.52241 9.06946,-4.33215 -0.96991,4.1081 -3.97052,8.04319 -2.92136,11.75056 12.57576,44.43834 -25.68271,64.20847 -57.88246,53.32957 z"
         inkscape:path-effect="#path-effect832"
         inkscape:connector-curvature="0"
         id="path830"
         d="M 127.22029,180.60412 C 126.44644,174.16212 126.21293,167.63655 126.82034,161.17011 127.33479,155.6933 128.46128,150.25364 130.41394,145.10262 132.11661,140.61107 134.47118,136.35133 137.50265,132.61709 140.29455,129.17796 143.67369,126.21337 147.46715,123.92201 151.45939,121.51058 155.90447,119.86821 160.4918,119.03788 165.85467,118.06717 171.38642,118.2798 176.72941,119.329 177.56462,119.49301 178.37875,119.75096 179.21326,119.91491 179.7478,120.01993 180.30895,119.98351 180.82478,119.80609 181.47822,119.58134 182.04323,119.1637 182.55817,118.71285 183.41436,117.96322 184.1777,117.10497 185.11014,116.44448 185.69378,116.03106 186.35483,115.71288 187.06267,115.58547 187.37944,115.52845 188.09842,115.21092 188.02411,115.52399 187.6747,116.99598 187.08703,118.39538 186.5124,119.79022 186.01662,120.99367 185.51006,122.19965 185.18597,123.46319 184.93726,124.43284 184.81495,125.44558 184.93359,126.44534 185.00932,127.08352 185.22306,127.69392 185.38821,128.31155 186.76368,133.45568 187.58966,138.76952 187.55559,144.10263 187.52691,148.59175 186.86144,153.09105 185.43025,157.35274 184.10693,161.29323 182.1046,165.00557 179.52318,168.26553 176.73524,171.7863 173.2739,174.75474 169.43067,177.07028 164.86954,179.81836 159.78608,181.65556 154.56088,182.64309 147.93682,183.89499 141.07866,183.80546 134.46663,182.52234 132.0119,182.04598 129.58925,181.4045 127.22029,180.60412 Z"
         style="fill:none;fill-rule:evenodd;stroke:#646464;stroke-width:5;stroke-linecap:butt;stroke-linejoin:miter;stroke-miterlimit:4;stroke-dasharray:none;stroke-opacity:1" />
      <path
         sodipodi:nodetypes="cccc"
         inkscape:original-d="m 45.735118,80.797619 c 26.522695,32.000101 49.676748,64.507621 72.688212,98.064251 m 6.98348,12.73326 c 5.54319,8.92427 10.86843,16.21304 15.95628,25.27391"
         inkscape:path-effect="#path-effect836"
         inkscape:connector-curvature="0"
         id="path834"
         d="M 45.735118,80.797619 C 60.609274,98.738059 74.754064,117.27318 88.425201,136.1434 98.633935,150.23448 108.58295,164.51177 118.42333,178.86187 M 125.40681,191.59513 C 128.40144,196.42431 131.58455,201.13241 134.67459,205.90023 137.0039,209.49428 139.26753,213.13294 141.36309,216.86904"
         style="fill:none;fill-rule:evenodd;stroke:#646464;stroke-width:5;stroke-linecap:round;stroke-linejoin:miter;stroke-miterlimit:4;stroke-dasharray:none;stroke-opacity:1" />
      <path
         sodipodi:nodetypes="cc"
         inkscape:original-d="m 172.38884,133.43105 c -39.73458,45.63346 -52.81622,57.19209 -62.00653,56.92841"
         inkscape:path-effect="#path-effect840"
         inkscape:connector-curvature="0"
         id="path838"
         d="M 172.38884,133.43105 C 165.54155,141.29067 158.65945,149.12122 151.63467,156.82302 147.08238,161.81404 142.48462,166.76607 137.73133,171.56685 134.64667,174.68233 131.50992,177.75084 128.21564,180.64529 126.00976,182.58344 123.74427,184.46295 121.32421,186.12933 119.67411,187.26554 117.95387,188.31666 116.11231,189.11421 114.54101,189.79472 112.86413,190.28123 111.1454,190.35412 110.8912,190.3649 110.63663,190.36676 110.38231,190.35946"
         style="fill:none;fill-rule:evenodd;stroke:#646464;stroke-width:5;stroke-linecap:round;stroke-linejoin:miter;stroke-miterlimit:4;stroke-dasharray:none;stroke-opacity:1" />
      <path
         sodipodi:nodetypes="cc"
         inkscape:original-d="m 114.52678,170.94494 c 7.71768,-25.8261 14.42299,-51.41858 9.26042,-74.272322"
         inkscape:path-effect="#path-effect844"
         inkscape:connector-curvature="0"
         id="path842"
         d="M 114.52678,170.94494 C 116.96565,162.77786 119.33174,154.58326 121.27462,146.28191 122.84003,139.59338 124.13936,132.83326 124.89907,126.00278 125.56873,119.98197 125.81745,113.90176 125.39901,107.85358 125.13889,104.09379 124.6182,100.3496 123.7872,96.672618"
         style="fill:none;fill-rule:evenodd;stroke:#646464;stroke-width:4;stroke-linecap:round;stroke-linejoin:miter;stroke-miterlimit:4;stroke-dasharray:none;stroke-opacity:1" />
      <path
         transform="translate(-10.394345,-15.875)"
         style="fill:none;fill-rule:evenodd;stroke:#646464;stroke-width:4;stroke-linecap:round;stroke-linejoin:miter;stroke-miterlimit:4;stroke-dasharray:none;stroke-opacity:1"
         d="M 114.52678,170.94494 C 116.46028,164.47306 118.04611,157.88655 119.0255,151.19934 119.73528,146.35303 120.10817,141.4565 120.1144,136.55787 120.12065,131.64449 119.74791,126.73501 119.09843,121.86612 118.35842,116.31859 117.27061,110.82348 116.03869,105.36607"
         id="path846"
         inkscape:connector-curvature="0"
         inkscape:path-effect="#path-effect848"
         inkscape:original-d="m 114.52678,170.94494 c 7.71768,-25.8261 6.67448,-42.72513 1.51191,-65.57887"
         sodipodi:nodetypes="cc" />
      <path
         sodipodi:nodetypes="cc"
         inkscape:original-d="m 114.52678,170.94494 c 3.0204,-20.53443 1.46246,-27.79507 -2.83481,-50.64881"
         inkscape:path-effect="#path-effect852"
         inkscape:connector-curvature="0"
         id="path850"
         d="M 114.52678,170.94494 C 115.14113,166.75617 115.65811,162.5494 115.91969,158.32247 116.11112,155.22907 116.14886,152.12553 116.00849,149.02899 115.85002,145.5332 115.4574,142.05187 114.9452,138.59144 114.39612,134.88185 113.72845,131.19113 113.04424,127.50449 112.59814,125.10083 112.14357,122.69876 111.69197,120.29613"
         style="fill:none;fill-rule:evenodd;stroke:#646464;stroke-width:4;stroke-linecap:round;stroke-linejoin:miter;stroke-miterlimit:4;stroke-dasharray:none;stroke-opacity:1"
         transform="translate(-21.544643,-31.75)" />
      <path
         transform="translate(0.94494048,3.7797619)"
         style="fill:none;fill-rule:evenodd;stroke:#646464;stroke-width:4;stroke-linecap:round;stroke-linejoin:miter;stroke-miterlimit:4;stroke-dasharray:none;stroke-opacity:1"
         d="M 114.52678,170.94494 C 106.39158,169.89815 98.269621,168.70306 90.228555,167.07346 83.289203,165.66713 76.415468,163.90813 69.702506,161.64884 63.707082,159.63104 57.853085,157.19988 52.17165,154.41937 43.496384,150.17367 35.229594,145.13855 27.214283,139.7619"
         id="path854"
         inkscape:connector-curvature="0"
         inkscape:path-effect="#path-effect856"
         inkscape:original-d="M 114.52678,170.94494 C 78.210234,166.28551 57.890246,160.34779 27.214283,139.7619"
         sodipodi:nodetypes="cc" />
      <path
         sodipodi:nodetypes="cc"
         inkscape:original-d="M 101.4866,184.93006 C 72.918567,181.59355 64.504829,180.00255 36.285712,169.62202"
         inkscape:path-effect="#path-effect860"
         inkscape:connector-curvature="0"
         id="path858"
         d="M 101.4866,184.93006 C 96.056656,184.29365 90.627037,183.64837 85.213793,182.88078 80.05853,182.14977 74.91909,181.28716 69.834149,180.16114 65.508342,179.20322 61.228438,178.04523 56.992757,176.74721 51.52479,175.07156 46.122476,173.19003 40.744249,171.24794 39.256363,170.71066 37.770371,170.16815 36.285712,169.62202"
         style="fill:none;fill-rule:evenodd;stroke:#646464;stroke-width:4;stroke-linecap:round;stroke-linejoin:miter;stroke-miterlimit:4;stroke-dasharray:none;stroke-opacity:1"
         transform="translate(0.94494048,3.7797619)" />
      <path
         sodipodi:nodetypes="cc"
         inkscape:original-d="M 98.155228,149.41142 C 70.116171,144.68158 64.504829,143.52785 33.828866,122.94196"
         inkscape:path-effect="#path-effect864"
         inkscape:connector-curvature="0"
         id="path862"
         d="M 98.155228,149.41142 C 93.82831,148.67901 89.498834,147.9576 85.190038,147.12369 80.641583,146.2434 76.111392,145.22383 71.696001,143.80874 68.526791,142.79304 65.428215,141.56153 62.41383,140.15205 58.076832,138.12413 53.905584,135.76068 49.817578,133.27402 45.238702,130.48877 40.750261,127.55801 36.290004,124.58753 35.468624,124.0405 34.648316,123.49187 33.828866,122.94196"
         style="fill:none;fill-rule:evenodd;stroke:#646464;stroke-width:4;stroke-linecap:round;stroke-linejoin:miter;stroke-miterlimit:4;stroke-dasharray:none;stroke-opacity:1"
         transform="translate(0.94494048,3.7797619)" />
      <path
         transform="translate(0.94494048,3.7797619)"
         style="fill:none;fill-rule:evenodd;stroke:#646464;stroke-width:4;stroke-linecap:round;stroke-linejoin:miter;stroke-miterlimit:4;stroke-dasharray:none;stroke-opacity:1"
         d="M 82.707994,125.77678 C 79.182469,125.03446 75.683147,124.13249 72.294019,122.90135 70.09962,122.10421 67.95956,121.15991 65.88385,120.09151 62.907729,118.55966 60.06246,116.78899 57.26105,114.96125 54.56505,113.20228 51.900059,111.39647 49.227617,109.60209 47.141889,108.20165 45.052412,106.80677 42.954019,105.42536"
         id="path866"
         inkscape:connector-curvature="0"
         inkscape:path-effect="#path-effect868"
         inkscape:original-d="M 82.707994,125.77678 C 66.458101,122.35786 61.819851,117.84728 42.954019,105.42536"
         sodipodi:nodetypes="cc" />
      <path
         transform="translate(-21.544643,-31.75)"
         style="fill:none;fill-rule:evenodd;stroke:#646464;stroke-width:4;stroke-linecap:round;stroke-linejoin:miter;stroke-miterlimit:4;stroke-dasharray:none;stroke-opacity:1"
         d="M 97.139875,149.02232 C 96.94956,145.27119 96.717575,141.5212 96.364585,137.78151 96.034185,134.28114 95.587901,130.78982 94.951123,127.33121 94.458187,124.65387 93.845327,121.99917 93.133543,119.37168 92.788795,118.09907 92.421554,116.83262 92.037208,115.57143"
         id="path870"
         inkscape:connector-curvature="0"
         inkscape:path-effect="#path-effect872"
         inkscape:original-d="M 97.139875,149.02232 C 96.380513,133.96855 95.20055,125.95195 92.037208,115.57143"
         sodipodi:nodetypes="cc" />
    </g>
  </g>
</svg>
