<?xml version="1.0" encoding="UTF-8" standalone="no"?>
<!-- Created with Inkscape (http://www.inkscape.org/) -->

<svg
   xmlns:dc="http://purl.org/dc/elements/1.1/"
   xmlns:cc="http://creativecommons.org/ns#"
   xmlns:rdf="http://www.w3.org/1999/02/22-rdf-syntax-ns#"
   xmlns:svg="http://www.w3.org/2000/svg"
   xmlns="http://www.w3.org/2000/svg"
   xmlns:sodipodi="http://sodipodi.sourceforge.net/DTD/sodipodi-0.dtd"
   xmlns:inkscape="http://www.inkscape.org/namespaces/inkscape"
   width="190mm"
   height="190mm"
   viewBox="0 0 190 190"
   version="1.1"
   id="svg8"
   inkscape:version="0.92.5 (2060ec1f9f, 2020-04-08)"
   sodipodi:docname="AppIcon.svg">
  <defs
     id="defs2">
    <inkscape:path-effect
       simplifyJustCoalesce="false"
       simplifyindividualpaths="false"
       simplify_just_coalesce="false"
       simplify_individual_paths="false"
       helper_size="0"
       smooth_angles="360"
       threshold="0.0001"
       steps="1"
       is_visible="true"
       id="path-effect872"
       effect="simplify" />
    <inkscape:path-effect
       simplifyJustCoalesce="false"
       simplifyindividualpaths="false"
       simplify_just_coalesce="false"
       simplify_individual_paths="false"
       helper_size="0"
       smooth_angles="360"
       threshold="0.0001"
       steps="1"
       is_visible="true"
       id="path-effect868"
       effect="simplify" />
    <inkscape:path-effect
       effect="simplify"
       id="path-effect864"
       is_visible="true"
       steps="1"
       threshold="0.0001"
       smooth_angles="360"
       helper_size="0"
       simplify_individual_paths="false"
       simplify_just_coalesce="false"
       simplifyindividualpaths="false"
       simplifyJustCoalesce="false" />
    <inkscape:path-effect
       effect="simplify"
       id="path-effect860"
       is_visible="true"
       steps="1"
       threshold="0.0001"
       smooth_angles="360"
       helper_size="0"
       simplify_individual_paths="false"
       simplify_just_coalesce="false"
       simplifyindividualpaths="false"
       simplifyJustCoalesce="false" />
    <inkscape:path-effect
       simplifyJustCoalesce="false"
       simplifyindividualpaths="false"
       simplify_just_coalesce="false"
       simplify_individual_paths="false"
       helper_size="0"
       smooth_angles="360"
       threshold="0.0001"
       steps="1"
       is_visible="true"
       id="path-effect856"
       effect="simplify" />
    <inkscape:path-effect
       effect="simplify"
       id="path-effect852"
       is_visible="true"
       steps="1"
       threshold="0.0001"
       smooth_angles="360"
       helper_size="0"
       simplify_individual_paths="false"
       simplify_just_coalesce="false"
       simplifyindividualpaths="false"
       simplifyJustCoalesce="false" />
    <inkscape:path-effect
       simplifyJustCoalesce="false"
       simplifyindividualpaths="false"
       simplify_just_coalesce="false"
       simplify_individual_paths="false"
       helper_size="0"
       smooth_angles="360"
       threshold="0.0001"
       steps="1"
       is_visible="true"
       id="path-effect848"
       effect="simplify" />
    <inkscape:path-effect
       effect="simplify"
       id="path-effect844"
       is_visible="true"
       steps="1"
       threshold="0.0001"
       smooth_angles="360"
       helper_size="0"
       simplify_individual_paths="false"
       simplify_just_coalesce="false"
       simplifyindividualpaths="false"
       simplifyJustCoalesce="false" />
    <inkscape:path-effect
       effect="simplify"
       id="path-effect840"
       is_visible="true"
       steps="1"
       threshold="0.0001"
       smooth_angles="360"
       helper_size="0"
       simplify_individual_paths="false"
       simplify_just_coalesce="false"
       simplifyindividualpaths="false"
       simplifyJustCoalesce="false" />
    <inkscape:path-effect
       effect="simplify"
       id="path-effect836"
       is_visible="true"
       steps="1"
       threshold="0.0001"
       smooth_angles="360"
       helper_size="0"
       simplify_individual_paths="false"
       simplify_just_coalesce="false"
       simplifyindividualpaths="false"
       simplifyJustCoalesce="false" />
    <inkscape:path-effect
       effect="simplify"
       id="path-effect832"
       is_visible="true"
       steps="1"
       threshold="0.0001"
       smooth_angles="360"
       helper_size="0"
       simplify_individual_paths="false"
       simplify_just_coalesce="false"
       simplifyindividualpaths="false"
       simplifyJustCoalesce="false" />
    <inkscape:path-effect
       effect="simplify"
       id="path-effect828"
       is_visible="true"
       steps="1"
       threshold="0.0001"
       smooth_angles="360"
       helper_size="0"
       simplify_individual_paths="false"
       simplify_just_coalesce="false"
       simplifyindividualpaths="false"
       simplifyJustCoalesce="false" />
  </defs>
  <sodipodi:namedview
     id="base"
     pagecolor="#202020"
     bordercolor="#666666"
     borderopacity="1.0"
     inkscape:pageopacity="0"
     inkscape:pageshadow="2"
     inkscape:zoom="0.7"
     inkscape:cx="231.29154"
     inkscape:cy="111.32943"
     inkscape:document-units="mm"
     inkscape:current-layer="layer1"
     showgrid="false"
     inkscape:window-width="2560"
     inkscape:window-height="1361"
     inkscape:window-x="0"
     inkscape:window-y="0"
     inkscape:window-maximized="1"
     fit-margin-top="0"
     fit-margin-left="0"
     fit-margin-right="0"
     fit-margin-bottom="0" />
  <metadata
     id="metadata5">
    <rdf:RDF>
      <cc:Work
         rdf:about="">
        <dc:format>image/svg+xml</dc:format>
        <dc:type
           rdf:resource="http://purl.org/dc/dcmitype/StillImage" />
        <dc:title></dc:title>
      </cc:Work>
    </rdf:RDF>
  </metadata>
  <g
     inkscape:label="Ebene 1"
     inkscape:groupmode="layer"
     id="layer1"
     transform="translate(-8.8373823,-34.044873)">
    <g
       id="g886"
       transform="translate(4.1564194,-10.423907)"
       style="stroke:#646464;stroke-opacity:1">
      <path
         sodipodi:nodetypes="ccscccsscccccscscscccccc"
         inkscape:original-d="m 161.50514,188.29852 c -2.6675,16.23123 -10.073,22.52889 -30.3474,14.01844 -0.56336,10.63482 -0.59891,14.32402 -10.75778,17.70703 -11.56915,3.85264 -42.215488,0.42534 -55.880576,-10.70616 3.131764,-2.94 2.476996,-2.10541 3.131764,-2.94 -8.698731,-7.95707 -38.612486,-12.53727 -45.465843,-38.38905 9.04918,1.81062 10.156848,-0.32967 8.406249,-4.32073 -2.289615,-5.21991 -7.486206,-10.86574 -12.347829,-16.65054 -2.38603,-2.83912 -7.554557,-4.47873 -6.617893,-8.56839 7.424194,-4.73841 4.780252,-2.00259 12.837319,-6.40568 -0.762828,-7.34305 -4.073226,-10.47227 -6.946036,-15.66685 4.497726,-3.02122 4.865534,-2.20109 8.320922,-2.22399 1.565507,-3.1412 1.233502,-6.84811 1.744771,-11.25016 4.196537,-3.457106 7.594789,-6.027605 8.312268,-8.426379 3.653116,-12.213584 -3.578111,-36.92398 -3.578111,-36.92398 0,0 14.009919,17.82454 25.977136,18.365123 8.578111,0.38749 20.838132,5.502132 27.306472,-5.589631 6.588327,1.977111 7.343085,10.516894 9.491872,10.387074 2.700418,-0.163147 6.216505,-5.65364 6.606165,-8.466675 8.29782,3.959404 10.69484,11.163282 14.34324,15.023585 2.31204,-1.351453 3.72475,-1.155787 8.37676,-11.243334 9.9974,6.616799 2.99903,15.391646 11.72245,22.0919 0.63851,-0.716475 2.20278,-3.084485 3.52166,-6.059398 3.18978,5.043172 7.54227,11.808495 11.52921,22.109505"
         inkscape:path-effect="#path-effect828"
         inkscape:connector-curvature="0"
         id="path826"
         d="m 161.50514,188.29852 c -0.49638,2.98396 -1.16888,5.96192 -2.33816,8.76054 -0.89257,2.13633 -2.10869,4.17622 -3.80387,5.77617 -1.35178,1.27584 -3.02026,2.20145 -4.80624,2.7122 -2.32107,0.66377 -4.78039,0.67921 -7.15974,0.3759 -3.17208,-0.40436 -6.2571,-1.31763 -9.2492,-2.42378 -1.00544,-0.3717 -2.93051,-2.25285 -2.99019,-1.18259 -0.12443,2.23152 -0.19802,4.46973 -0.47877,6.68852 -0.20889,1.65089 -0.53571,3.31483 -1.2704,4.82157 -0.57726,1.18388 -1.44607,2.21328 -2.47933,3.02612 -1.41691,1.11465 -3.06552,1.8912 -4.74052,2.5313 -1.25746,0.48054 -2.53606,0.91407 -3.85209,1.20621 -2.72979,0.60598 -5.52792,0.84974 -8.31846,0.92592 -4.7612,0.12997 -9.52915,-0.1945 -14.2445,-0.84684 -5.59435,-0.77394 -11.141884,-1.9741 -16.496841,-3.77853 -3.910405,-1.31767 -7.742985,-2.93456 -11.260948,-5.10532 -1.214765,-0.74957 -4.538098,-1.49147 -3.496497,-2.46808 0.87456,-0.81999 1.76013,-1.62852 2.669637,-2.40997 0.178805,-0.15363 0.635799,-0.37279 0.462127,-0.53003 -1.390726,-1.25916 -3.002869,-2.24394 -4.644346,-3.13727 -2.8637,-1.5585 -5.838073,-2.89897 -8.78951,-4.27962 -5.088464,-2.38032 -10.141559,-4.89277 -14.800988,-8.0505 -4.025309,-2.72798 -7.737997,-5.96722 -10.739445,-9.80898 -2.70546,-3.4629 -4.765989,-7.42329 -6.063929,-11.62209 -0.152669,-0.49388 -0.934877,-1.5902 -0.427625,-1.49059 1.666674,0.32729 3.35152,0.62848 5.053426,0.64802 0.853588,0.01 1.726978,-0.0279 2.540861,-0.3083 0.512135,-0.17642 1.002118,-0.49499 1.266571,-0.98201 0.283874,-0.52278 0.285563,-1.14735 0.182722,-1.71846 -0.17868,-0.99228 -0.593241,-1.92308 -1.038523,-2.82015 -1.085764,-2.18738 -2.476191,-4.20761 -3.952388,-6.14662 -2.40515,-3.1592 -5.061002,-6.11513 -7.594759,-9.16953 -0.358728,-0.43244 -0.724699,-0.86022 -1.136604,-1.2441 -1.368763,-1.27563 -3.008284,-2.22432 -4.348692,-3.53208 -0.663062,-0.64691 -1.250948,-1.41319 -1.50837,-2.31706 -0.18035,-0.63325 -0.577833,-1.59845 -0.02372,-1.94937 1.37845,-0.87296 2.763218,-1.74202 4.215568,-2.48864 0.719889,-0.37008 1.472331,-0.67194 2.236611,-0.93672 1.007623,-0.34909 1.99428,-0.75666 2.957911,-1.21349 1.161641,-0.5507 3.55727,-0.48809 3.427229,-1.76683 -0.222966,-2.19251 -0.744402,-4.3579 -1.593906,-6.39451 -0.810733,-1.94366 -1.92954,-3.73593 -3.06012,-5.50563 -0.791273,-1.23858 -3.516519,-2.95268 -2.29201,-3.76671 0.976258,-0.649 1.96647,-1.29063 3.039445,-1.77019 0.6667,-0.29798 1.383001,-0.49577 2.115024,-0.52922 0.792174,-0.0362 1.58302,0.0444 2.37445,0.0666 0.263925,0.007 0.673768,0.24488 0.792003,0.009 0.688461,-1.37464 1.013184,-2.89794 1.189586,-4.41563 0.220696,-1.89878 0.268591,-3.81183 0.440317,-5.71495 0.03372,-0.37364 -0.17419,-0.88043 0.114868,-1.11958 1.662556,-1.37553 3.368403,-2.70163 4.965167,-4.154155 0.90317,-0.821587 1.796354,-1.671096 2.511123,-2.665894 0.382028,-0.531697 0.697125,-1.117009 0.878291,-1.750028 0.674042,-2.355197 0.9177,-4.811983 0.973582,-7.253388 0.08853,-3.867885 -0.25251,-7.733913 -0.790303,-11.560784 -0.695778,-4.951071 -1.69513,-9.857561 -2.928188,-14.701703 -0.277909,-1.091782 -1.580748,-4.143039 -0.875515,-3.264407 1.280213,1.594985 2.638983,3.12631 4.045959,4.61005 2.777166,2.928687 5.733918,5.704073 8.982631,8.105073 2.381152,1.759819 4.916873,3.351275 7.680089,4.438456 1.74432,0.686299 3.592058,1.115177 5.470176,1.221481 2.390879,0.135327 4.753116,0.549765 7.120203,0.890413 2.775242,0.399386 5.582653,0.741807 8.390976,0.560795 2.150135,-0.138588 4.300428,-0.636038 6.213052,-1.653102 1.805954,-0.960341 3.330975,-2.396165 4.515384,-4.055982 0.309219,-0.433336 0.354581,-1.492323 0.865138,-1.341692 1.423347,0.419935 2.71288,1.233161 3.764127,2.275542 1.29147,1.280578 2.215243,2.869216 3.048174,4.472448 0.44593,0.85833 0.825106,1.755296 1.349682,2.569419 0.229436,0.356076 0.479859,0.722461 0.848346,0.94861 0.19077,0.11708 0.421399,0.136953 0.640675,0.105459 0.679891,-0.09765 1.29147,-0.456562 1.823265,-0.873978 0.939117,-0.737131 1.718478,-1.659243 2.392133,-2.639095 0.755945,-1.099545 1.415835,-2.275693 1.864345,-3.534524 0.16242,-0.455864 -0.0708,-1.61125 0.36729,-1.403482 2.27649,1.079718 4.35221,2.565621 6.14364,4.336394 1.72079,1.700952 3.14618,3.667714 4.5049,5.662281 1.0288,1.510249 2.00115,3.067558 3.18916,4.460693 0.16387,0.192164 0.28739,0.691481 0.50554,0.564217 0.74762,-0.436154 1.54543,-0.79264 2.23359,-1.325779 0.97588,-0.75605 1.72958,-1.755416 2.39462,-2.784194 1.08441,-1.677514 1.99531,-3.459798 2.86342,-5.256309 0.30098,-0.622862 0.30745,-2.257614 0.88513,-1.877052 1.66015,1.093671 3.15135,2.482577 4.2101,4.178052 0.88804,1.422097 1.41499,3.036771 1.75295,4.670872 0.4884,2.361517 0.64458,4.79277 1.37337,7.10318 0.48469,1.53657 1.26835,2.98025 2.32015,4.204136 0.61636,0.717203 1.44791,2.65066 2.06588,1.93566 0.39551,-0.457611 0.73504,-0.96053 1.06083,-1.468935 0.93765,-1.463252 1.52934,-6.057173 2.46083,-4.590463 1.72406,2.71468 3.42577,5.445135 5.0023,8.249045 2.50516,4.45551 4.68494,9.09255 6.52691,13.86046"
         style="fill:none;fill-rule:evenodd;stroke:#646464;stroke-width:5;stroke-linecap:round;stroke-linejoin:miter;stroke-miterlimit:4;stroke-dasharray:none;stroke-opacity:1" />
      <path
         sodipodi:nodetypes="cscsc"
         inkscape:original-d="m 127.22029,180.60412 c -5.92495,-49.19857 24.6955,-67.88117 51.73436,-60.74798 3.73659,0.98576 4.93392,-4.52241 9.06946,-4.33215 -0.96991,4.1081 -3.97052,8.04319 -2.92136,11.75056 12.57576,44.43834 -25.68271,64.20847 -57.88246,53.32957 z"
         inkscape:path-effect="#path-effect832"
         inkscape:connector-curvature="0"
         id="path830"
         d="m 127.22029,180.60412 c -0.77385,-6.442 -1.00736,-12.96757 -0.39995,-19.43401 0.51445,-5.47681 1.64094,-10.91647 3.5936,-16.06749 1.70267,-4.49155 4.05724,-8.75129 7.08871,-12.48553 2.7919,-3.43913 6.17104,-6.40372 9.9645,-8.69508 3.99224,-2.41143 8.43732,-4.0538 13.02465,-4.88413 5.36287,-0.97071 10.89462,-0.75808 16.23761,0.29112 0.83521,0.16401 1.64934,0.42196 2.48385,0.58591 0.53454,0.10502 1.09569,0.0686 1.61152,-0.10882 0.65344,-0.22475 1.21845,-0.64239 1.73339,-1.09324 0.85619,-0.74963 1.61953,-1.60788 2.55197,-2.26837 0.58364,-0.41342 1.24469,-0.7316 1.95253,-0.85901 0.31677,-0.057 1.03575,-0.37455 0.96144,-0.0615 -0.34941,1.47199 -0.93708,2.87139 -1.51171,4.26623 -0.49578,1.20345 -1.00234,2.40943 -1.32643,3.67297 -0.24871,0.96965 -0.37102,1.98239 -0.25238,2.98215 0.0757,0.63818 0.28947,1.24858 0.45462,1.86621 1.37547,5.14413 2.20145,10.45797 2.16738,15.79108 -0.0287,4.48912 -0.69415,8.98842 -2.12534,13.25011 -1.32332,3.94049 -3.32565,7.65283 -5.90707,10.91279 -2.78794,3.52077 -6.24928,6.48921 -10.09251,8.80475 -4.56113,2.74808 -9.64459,4.58528 -14.86979,5.57281 -6.62406,1.2519 -13.48222,1.16237 -20.09425,-0.12075 -2.45473,-0.47636 -4.87738,-1.11784 -7.24634,-1.91822 z"
         style="fill:none;fill-rule:evenodd;stroke:#646464;stroke-width:5;stroke-linecap:butt;stroke-linejoin:miter;stroke-miterlimit:4;stroke-dasharray:none;stroke-opacity:1" />
      <path
         sodipodi:nodetypes="cccc"
         inkscape:original-d="m 45.735118,80.797619 c 26.522695,32.000101 49.676748,64.507621 72.688212,98.064251 m 6.98348,12.73326 c 5.54319,8.92427 10.86843,16.21304 15.95628,25.27391"
         inkscape:path-effect="#path-effect836"
         inkscape:connector-curvature="0"
         id="path834"
         d="m 45.735118,80.797619 c 14.874156,17.94044 29.018946,36.475561 42.690083,55.345781 10.208734,14.09108 20.157749,28.36837 29.998129,42.71847 m 6.98348,12.73326 c 2.99463,4.82918 6.17774,9.53728 9.26778,14.3051 2.32931,3.59405 4.59294,7.23271 6.6885,10.96881"
         style="fill:none;fill-rule:evenodd;stroke:#646464;stroke-width:5;stroke-linecap:round;stroke-linejoin:miter;stroke-miterlimit:4;stroke-dasharray:none;stroke-opacity:1" />
      <path
         sodipodi:nodetypes="cc"
         inkscape:original-d="m 172.38884,133.43105 c -39.73458,45.63346 -52.81622,57.19209 -62.00653,56.92841"
         inkscape:path-effect="#path-effect840"
         inkscape:connector-curvature="0"
         id="path838"
         d="m 172.38884,133.43105 c -6.84729,7.85962 -13.72939,15.69017 -20.75417,23.39197 -4.55229,4.99102 -9.15005,9.94305 -13.90334,14.74383 -3.08466,3.11548 -6.22141,6.18399 -9.51569,9.07844 -2.20588,1.93815 -4.47137,3.81766 -6.89143,5.48404 -1.6501,1.13621 -3.37034,2.18733 -5.2119,2.98488 -1.5713,0.68051 -3.24818,1.16702 -4.96691,1.23991 -0.2542,0.0108 -0.50877,0.0126 -0.76309,0.005"
         style="fill:none;fill-rule:evenodd;stroke:#646464;stroke-width:5;stroke-linecap:round;stroke-linejoin:miter;stroke-miterlimit:4;stroke-dasharray:none;stroke-opacity:1" />
      <path
         sodipodi:nodetypes="cc"
         inkscape:original-d="m 114.52678,170.94494 c 7.71768,-25.8261 14.42299,-51.41858 9.26042,-74.272322"
         inkscape:path-effect="#path-effect844"
         inkscape:connector-curvature="0"
         id="path842"
         d="m 114.52678,170.94494 c 2.43887,-8.16708 4.80496,-16.36168 6.74784,-24.66303 1.56541,-6.68853 2.86474,-13.44865 3.62445,-20.27913 0.66966,-6.02081 0.91838,-12.10102 0.49994,-18.1492 -0.26012,-3.75979 -0.78081,-7.50398 -1.61181,-11.180962"
         style="fill:none;fill-rule:evenodd;stroke:#646464;stroke-width:4;stroke-linecap:round;stroke-linejoin:miter;stroke-miterlimit:4;stroke-dasharray:none;stroke-opacity:1" />
      <path
         transform="translate(-10.394345,-15.875)"
         style="fill:none;fill-rule:evenodd;stroke:#646464;stroke-width:4;stroke-linecap:round;stroke-linejoin:miter;stroke-miterlimit:4;stroke-dasharray:none;stroke-opacity:1"
         d="m 114.52678,170.94494 c 1.9335,-6.47188 3.51933,-13.05839 4.49872,-19.7456 0.70978,-4.84631 1.08267,-9.74284 1.0889,-14.64147 0.006,-4.91338 -0.36649,-9.82286 -1.01597,-14.69175 -0.74001,-5.54753 -1.82782,-11.04264 -3.05974,-16.50005"
         id="path846"
         inkscape:connector-curvature="0"
         inkscape:path-effect="#path-effect848"
         inkscape:original-d="m 114.52678,170.94494 c 7.71768,-25.8261 6.67448,-42.72513 1.51191,-65.57887"
         sodipodi:nodetypes="cc" />
      <path
         sodipodi:nodetypes="cc"
         inkscape:original-d="m 114.52678,170.94494 c 3.0204,-20.53443 1.46246,-27.79507 -2.83481,-50.64881"
         inkscape:path-effect="#path-effect852"
         inkscape:connector-curvature="0"
         id="path850"
         d="m 114.52678,170.94494 c 0.61435,-4.18877 1.13133,-8.39554 1.39291,-12.62247 0.19143,-3.0934 0.22917,-6.19694 0.0888,-9.29348 -0.15847,-3.49579 -0.55109,-6.97712 -1.06329,-10.43755 -0.54908,-3.70959 -1.21675,-7.40031 -1.90096,-11.08695 -0.4461,-2.40366 -0.90067,-4.80573 -1.35227,-7.20836"
         style="fill:none;fill-rule:evenodd;stroke:#646464;stroke-width:4;stroke-linecap:round;stroke-linejoin:miter;stroke-miterlimit:4;stroke-dasharray:none;stroke-opacity:1"
         transform="translate(-21.544643,-31.75)" />
      <path
         transform="translate(0.94494048,3.7797619)"
         style="fill:none;fill-rule:evenodd;stroke:#646464;stroke-width:4;stroke-linecap:round;stroke-linejoin:miter;stroke-miterlimit:4;stroke-dasharray:none;stroke-opacity:1"
         d="m 114.52678,170.94494 c -8.1352,-1.04679 -16.257159,-2.24188 -24.298225,-3.87148 -6.939352,-1.40633 -13.813087,-3.16533 -20.526049,-5.42462 -5.995424,-2.0178 -11.849421,-4.44896 -17.530856,-7.22947 -8.675266,-4.2457 -16.942056,-9.28082 -24.957367,-14.65747"
         id="path854"
         inkscape:connector-curvature="0"
         inkscape:path-effect="#path-effect856"
         inkscape:original-d="M 114.52678,170.94494 C 78.210234,166.28551 57.890246,160.34779 27.214283,139.7619"
         sodipodi:nodetypes="cc" />
      <path
         sodipodi:nodetypes="cc"
         inkscape:original-d="M 101.4866,184.93006 C 72.918567,181.59355 64.504829,180.00255 36.285712,169.62202"
         inkscape:path-effect="#path-effect860"
         inkscape:connector-curvature="0"
         id="path858"
         d="m 101.4866,184.93006 c -5.429944,-0.63641 -10.859563,-1.28169 -16.272807,-2.04928 -5.155263,-0.73101 -10.294703,-1.59362 -15.379644,-2.71964 -4.325807,-0.95792 -8.605711,-2.11591 -12.841392,-3.41393 -5.467967,-1.67565 -10.870281,-3.55718 -16.248508,-5.49927 -1.487886,-0.53728 -2.973878,-1.07979 -4.458537,-1.62592"
         style="fill:none;fill-rule:evenodd;stroke:#646464;stroke-width:4;stroke-linecap:round;stroke-linejoin:miter;stroke-miterlimit:4;stroke-dasharray:none;stroke-opacity:1"
         transform="translate(0.94494048,3.7797619)" />
      <path
         sodipodi:nodetypes="cc"
         inkscape:original-d="M 98.155228,149.41142 C 70.116171,144.68158 64.504829,143.52785 33.828866,122.94196"
         inkscape:path-effect="#path-effect864"
         inkscape:connector-curvature="0"
         id="path862"
         d="m 98.155228,149.41142 c -4.326918,-0.73241 -8.656394,-1.45382 -12.96519,-2.28773 -4.548455,-0.88029 -9.078646,-1.89986 -13.494037,-3.31495 -3.16921,-1.0157 -6.267786,-2.24721 -9.282171,-3.65669 -4.336998,-2.02792 -8.508246,-4.39137 -12.596252,-6.87803 -4.578876,-2.78525 -9.067317,-5.71601 -13.527574,-8.68649 -0.82138,-0.54703 -1.641688,-1.09566 -2.461138,-1.64557"
         style="fill:none;fill-rule:evenodd;stroke:#646464;stroke-width:4;stroke-linecap:round;stroke-linejoin:miter;stroke-miterlimit:4;stroke-dasharray:none;stroke-opacity:1"
         transform="translate(0.94494048,3.7797619)" />
      <path
         transform="translate(0.94494048,3.7797619)"
         style="fill:none;fill-rule:evenodd;stroke:#646464;stroke-width:4;stroke-linecap:round;stroke-linejoin:miter;stroke-miterlimit:4;stroke-dasharray:none;stroke-opacity:1"
         d="m 82.707994,125.77678 c -3.525525,-0.74232 -7.024847,-1.64429 -10.413975,-2.87543 -2.194399,-0.79714 -4.334459,-1.74144 -6.410169,-2.80984 -2.976121,-1.53185 -5.82139,-3.30252 -8.6228,-5.13026 -2.696,-1.75897 -5.360991,-3.56478 -8.033433,-5.35916 -2.085728,-1.40044 -4.175205,-2.79532 -6.273598,-4.17673"
         id="path866"
         inkscape:connector-curvature="0"
         inkscape:path-effect="#path-effect868"
         inkscape:original-d="M 82.707994,125.77678 C 66.458101,122.35786 61.819851,117.84728 42.954019,105.42536"
         sodipodi:nodetypes="cc" />
      <path
         transform="translate(-21.544643,-31.75)"
         style="fill:none;fill-rule:evenodd;stroke:#646464;stroke-width:4;stroke-linecap:round;stroke-linejoin:miter;stroke-miterlimit:4;stroke-dasharray:none;stroke-opacity:1"
         d="m 97.139875,149.02232 c -0.190315,-3.75113 -0.4223,-7.50112 -0.77529,-11.24081 -0.3304,-3.50037 -0.776684,-6.99169 -1.413462,-10.4503 -0.492936,-2.67734 -1.105796,-5.33204 -1.81758,-7.95953 -0.344748,-1.27261 -0.711989,-2.53906 -1.096335,-3.80025"
         id="path870"
         inkscape:connector-curvature="0"
         inkscape:path-effect="#path-effect872"
         inkscape:original-d="M 97.139875,149.02232 C 96.380513,133.96855 95.20055,125.95195 92.037208,115.57143"
         sodipodi:nodetypes="cc" />
    </g>
  </g>
</svg>
