<?xml version="1.0" encoding="UTF-8" standalone="no"?>
<svg
   xmlns:dc="http://purl.org/dc/elements/1.1/"
   xmlns:cc="http://creativecommons.org/ns#"
   xmlns:rdf="http://www.w3.org/1999/02/22-rdf-syntax-ns#"
   xmlns:svg="http://www.w3.org/2000/svg"
   xmlns="http://www.w3.org/2000/svg"
   xmlns:sodipodi="http://sodipodi.sourceforge.net/DTD/sodipodi-0.dtd"
   xmlns:inkscape="http://www.inkscape.org/namespaces/inkscape"
   id="svg8"
   version="1.1"
   viewBox="0 0 24 24"
   height="24"
   width="24"
   sodipodi:docname="BranchIcon.svg"
   inkscape:version="0.92.5 (2060ec1f9f, 2020-04-08)">
  <sodipodi:namedview
     pagecolor="#ffffff"
     bordercolor="#666666"
     borderopacity="1"
     objecttolerance="10"
     gridtolerance="10"
     guidetolerance="10"
     inkscape:pageopacity="0"
     inkscape:pageshadow="2"
     inkscape:window-width="2560"
     inkscape:window-height="1361"
     id="namedview821"
     showgrid="false"
     inkscape:zoom="47.375"
     inkscape:cx="12"
     inkscape:cy="12"
     inkscape:window-x="0"
     inkscape:window-y="0"
     inkscape:window-maximized="1"
     inkscape:current-layer="svg8" />
  <defs
     id="defs2" />
  <metadata
     id="metadata5">
    <rdf:RDF>
      <cc:Work
         rdf:about="">
        <dc:format>image/svg+xml</dc:format>
        <dc:type
           rdf:resource="http://purl.org/dc/dcmitype/StillImage" />
        <dc:title />
      </cc:Work>
    </rdf:RDF>
  </metadata>
  <path
     id="path2385"
     d="M 10.792669,2.1810559 A 0.90505906,0.90505906 0 0 0 9.8965385,3.0966295 v 17.7617735 0.03535 a 0.90606093,0.90606093 0 0 0 1.8117045,0.03889 c 0.08452,-2.007747 -0.05202,-4.124935 0.579745,-6.218123 0.502779,-1.665792 1.480919,-3.344717 3.50852,-4.995002 0.174522,0.433803 0.276748,0.898982 0.272199,1.385733 L 19.60374,5.8645604 13.516412,7.5666788 c 0.462884,0.1550584 0.873233,0.4022681 1.230192,0.7034716 -1.407412,1.1989543 -2.328772,2.4610096 -3.038361,3.7312276 V 3.0966295 A 0.90505906,0.90505906 0 0 0 10.792669,2.1810559 Z"
     inkscape:connector-curvature="0"
     style="fill:currentColor;fill-opacity:0.4;stroke:currentColor;stroke-width:0.27149054" />
</svg>
