<?xml version="1.0" encoding="UTF-8"?>
<svg width="24" height="24" version="1.1" viewBox="0 0 24 24" xmlns="http://www.w3.org/2000/svg" xmlns:cc="http://creativecommons.org/ns#" xmlns:dc="http://purl.org/dc/elements/1.1/" xmlns:rdf="http://www.w3.org/1999/02/22-rdf-syntax-ns#">
 <metadata>
  <rdf:RDF>
   <cc:Work rdf:about="">
    <dc:format>image/svg+xml</dc:format>
    <dc:type rdf:resource="http://purl.org/dc/dcmitype/StillImage"/>
    <dc:title/>
   </cc:Work>
  </rdf:RDF>
 </metadata>
 <path d="m11.531 0.64158c-0.80226-0.017796-1.4126 0.57144-1.823 1.1977-1.6702 2.1675-3.3709 4.3131-5.0219 6.4943-0.72163 1.102 0.094681 2.7464 1.4098 2.8344 0.89661 0.1379 1.6171-0.50415 2.071-1.2018 0.50222-0.64593 1.0044-1.2919 1.5067-1.9378 0.009447 4.5422-0.018913 9.0858 0.014213 13.627 0.10577 1.3144 1.7606 2.1113 2.8541 1.375 0.76943-0.43015 0.9716-1.351 0.89905-2.1647v-3.3672c1.4385 1.4006 3.1202 2.5482 4.8902 3.4831 1.2203 0.4985 2.6811-0.61927 2.5106-1.9287-0.039159-0.91737-0.8404-1.4931-1.5891-1.861-2.1664-1.3242-4.3908-3.0148-5.1591-5.5535-0.36988-1.1529-0.52913-2.3647-0.58251-3.5711 0.75388 0.93206 1.4491 1.916 2.2424 2.8132 0.95311 0.91475 2.7234 0.40888 3.0495-0.87124 0.29489-0.83724-0.19467-1.6316-0.73562-2.2333-1.7383-2.1996-3.4408-4.4302-5.2017-6.6101-0.35478-0.33915-0.84349-0.53321-1.3347-0.52437z" color="#000000" color-rendering="auto" dominant-baseline="auto" fill-rule="evenodd" image-rendering="auto" shape-rendering="auto" solid-color="#000000" stop-color="#000000" style="font-feature-settings:normal;font-variant-alternates:normal;font-variant-caps:normal;font-variant-east-asian:normal;font-variant-ligatures:normal;font-variant-numeric:normal;font-variant-position:normal;font-variation-settings:normal;inline-size:0;isolation:auto;mix-blend-mode:normal;shape-margin:0;shape-padding:0;text-decoration-color:#000000;text-decoration-line:none;text-decoration-style:solid;text-indent:0;text-orientation:mixed;text-transform:none;white-space:normal"/>
</svg>
