<?xml version="1.0" encoding="UTF-8" standalone="no"?>
<svg xmlns:dc="http://purl.org/dc/elements/1.1/"
   xmlns:cc="http://creativecommons.org/ns#"
   xmlns:rdf="http://www.w3.org/1999/02/22-rdf-syntax-ns#"
   xmlns:svg="http://www.w3.org/2000/svg"
   xmlns="http://www.w3.org/2000/svg" id="svg2465" version="1.1" viewBox="0 0 24 24" height="24" width="24">
   <defs id="defs2459" />
   <metadata id="metadata2462">
      <rdf:RDF>
         <cc:Work rdf:about="">
            <dc:format>image/svg+xml</dc:format>
            <dc:type rdf:resource="http://purl.org/dc/dcmitype/StillImage" />
            <dc:title></dc:title>
         </cc:Work>
      </rdf:RDF>
   </metadata>
   <g id="stash" stroke="currentColor" stroke-width="0.3" fill="none">
      <path d="m 21.039123,16.781249 v 5.390625 H 2.9609978 v -5.390625" id="rect828" />
      <path transform="translate(0.0391229,-33.217141)" id="path1419" d="m 3.9452522,54.560891 c 5.3437499,0 10.6874998,0 16.0312498,0" />
      <path transform="translate(0.0391229,-33.951516)" d="m 3.9452522,54.560891 c 5.3437499,0 10.6874998,0 16.0312498,0" id="path1435" />
      <path id="path1439" d="m 3.9452522,54.560891 c 5.3437499,0 10.6874998,0 16.0312498,0" transform="translate(0.0391229,-34.685891)" />
   </g>
   <path id="g5012" fill="currentColor" fill-opacity="0.4" stroke="currentColor" stroke-width="0.3" d="m 11.975586,2.191406 c -0.517594,0.0081 -0.930917,0.433563 -0.923828,0.951172 v 9.433594 c -0.464656,-0.117231 -0.912714,-0.3118 -1.3144528,-0.607422 l 2.2617188,6.15039 2.263671,-6.15039 c -0.410377,0.294535 -0.86518,0.487916 -1.333984,0.605468 v -9.43164 c 0.0072,-0.529094 -0.424046,-0.959435 -0.953125,-0.951172 z" id="arrow" />
</svg>
