<?xml version="1.0" encoding="UTF-8" standalone="no"?>
<!-- Created with Inkscape (http://www.inkscape.org/) -->

<svg
   xmlns:dc="http://purl.org/dc/elements/1.1/"
   xmlns:cc="http://creativecommons.org/ns#"
   xmlns:rdf="http://www.w3.org/1999/02/22-rdf-syntax-ns#"
   xmlns:svg="http://www.w3.org/2000/svg"
   xmlns="http://www.w3.org/2000/svg"
   xmlns:sodipodi="http://sodipodi.sourceforge.net/DTD/sodipodi-0.dtd"
   xmlns:inkscape="http://www.inkscape.org/namespaces/inkscape"
   width="24"
   height="24"
   viewBox="0 0 24 24"
   version="1.1"
   id="svg2465"
   inkscape:version="0.92.5 (2060ec1f9f, 2020-04-08)"
   sodipodi:docname="HistoryIcon.svg">
  <defs
     id="defs2459">
    <marker
       inkscape:stockid="Arrow2Send"
       orient="auto"
       refY="0"
       refX="0"
       id="Arrow2Send"
       style="overflow:visible"
       inkscape:isstock="true">
      <path
         id="path854"
         style="fill:#000000;fill-opacity:1;fill-rule:evenodd;stroke:#000000;stroke-width:0.625;stroke-linejoin:round;stroke-opacity:1"
         d="M 8.7185878,4.0337352 -2.2072895,0.01601326 8.7185884,-4.0017078 c -1.7454984,2.3720609 -1.7354408,5.6174519 -6e-7,8.035443 z"
         transform="matrix(-0.3,0,0,-0.3,0.69,0)"
         inkscape:connector-curvature="0" />
    </marker>
    <marker
       inkscape:stockid="Arrow1Send"
       orient="auto"
       refY="0"
       refX="0"
       id="Arrow1Send"
       style="overflow:visible"
       inkscape:isstock="true">
      <path
         id="path836"
         d="M 0,0 5,-5 -12.5,0 5,5 Z"
         style="fill:#000000;fill-opacity:1;fill-rule:evenodd;stroke:#000000;stroke-width:1.00000003pt;stroke-opacity:1"
         transform="matrix(-0.2,0,0,-0.2,-1.2,0)"
         inkscape:connector-curvature="0" />
    </marker>
  </defs>
  <sodipodi:namedview
     id="base"
     pagecolor="#0e2641"
     bordercolor="#666666"
     borderopacity="1.0"
     inkscape:pageopacity="0"
     inkscape:pageshadow="2"
     inkscape:zoom="33.867469"
     inkscape:cx="7.9448837"
     inkscape:cy="17.934931"
     inkscape:document-units="px"
     inkscape:current-layer="layer1"
     showgrid="false"
     units="px"
     inkscape:window-width="2560"
     inkscape:window-height="1361"
     inkscape:window-x="0"
     inkscape:window-y="0"
     inkscape:window-maximized="1" />
  <metadata
     id="metadata2462">
    <rdf:RDF>
      <cc:Work
         rdf:about="">
        <dc:format>image/svg+xml</dc:format>
        <dc:type
           rdf:resource="http://purl.org/dc/dcmitype/StillImage" />
        <dc:title />
      </cc:Work>
    </rdf:RDF>
  </metadata>
  <g
     inkscape:label="Ebene 1"
     inkscape:groupmode="layer"
     id="layer1"
     transform="translate(0,-33.217141)">
    <path
       style="color:#000000;font-style:normal;font-variant:normal;font-weight:normal;font-stretch:normal;font-size:medium;line-height:normal;font-family:sans-serif;font-variant-ligatures:normal;font-variant-position:normal;font-variant-caps:normal;font-variant-numeric:normal;font-variant-alternates:normal;font-feature-settings:normal;text-indent:0;text-align:start;text-decoration:none;text-decoration-line:none;text-decoration-style:solid;text-decoration-color:#000000;letter-spacing:normal;word-spacing:normal;text-transform:none;writing-mode:lr-tb;direction:ltr;text-orientation:mixed;dominant-baseline:auto;baseline-shift:baseline;text-anchor:start;white-space:normal;shape-padding:0;clip-rule:nonzero;display:inline;overflow:visible;visibility:visible;opacity:1;isolation:auto;mix-blend-mode:normal;color-interpolation:sRGB;color-interpolation-filters:linearRGB;solid-color:#000000;solid-opacity:1;vector-effect:none;fill:#ffffff;fill-opacity:0.39215686;fill-rule:evenodd;stroke:#ffffff;stroke-width:0.36199999;stroke-linecap:round;stroke-linejoin:round;stroke-miterlimit:4;stroke-dasharray:none;stroke-dashoffset:0;stroke-opacity:1;color-rendering:auto;image-rendering:auto;shape-rendering:auto;text-rendering:auto;enable-background:accumulate"
       d="m 7.5253323,35.385755 c -0.5134254,0.008 -0.9234196,0.430222 -0.9163887,0.943662 v 0.949117 c -0.7851012,0.357084 -1.3400366,1.148319 -1.3400366,2.060057 0,0.911699 0.5549875,1.701132 1.3400366,2.058238 v 8.251135 C 5.8238424,50.005048 5.268907,50.796282 5.268907,51.70802 c 0,0.911699 0.5549875,1.701133 1.3400366,2.058238 v 0.338191 c -0.017804,1.258924 1.8796731,1.258924 1.8618691,0 v -0.345464 c 0.5799309,-0.26827 1.0221652,-0.774979 1.2145792,-1.390947 1.5311481,-0.09646 2.8053841,-0.309393 3.8510141,-0.72002 1.479672,-0.581078 2.531341,-1.612187 3.118267,-2.965536 0.277679,-0.640282 0.469773,-1.347026 0.607289,-2.121876 0.853056,-0.325895 1.469131,-1.148518 1.469131,-2.109149 0,-0.844779 -0.479899,-1.580421 -1.174577,-1.969144 0.02965,-1.772867 0.0079,-1.21164 0.02727,-3.606313 0.01122,-0.524059 -0.412219,-0.954074 -0.936389,-0.950935 -0.514123,0.0031 -0.92845,0.422265 -0.92548,0.936389 -0.01923,2.373659 -0.02429,1.776089 -0.06364,3.482673 -0.846156,0.329147 -1.456403,1.151324 -1.456403,2.10733 0,0.839739 0.474472,1.569449 1.16185,1.960054 -0.103796,0.591316 -0.234864,1.112417 -0.416376,1.530951 -0.421815,0.972634 -0.984375,1.537501 -2.092784,1.972781 -0.801701,0.314835 -1.946127,0.506716 -3.409184,0.59638 C 9.2103825,50.139968 8.8724466,49.840999 8.4708127,49.655236 v -8.26568 c 0.7783423,-0.360053 1.3273092,-1.144538 1.3273092,-2.050965 0,-0.906476 -0.5488999,-1.692757 -1.3273092,-2.052784 v -0.95639 c 0.00719,-0.524833 -0.4206624,-0.951859 -0.9454804,-0.943662 z"
       id="path3367"
       inkscape:connector-curvature="0"
       sodipodi:nodetypes="cccsccscccccsccscccccsccccccsccc" />
  </g>
</svg>
