<?xml version="1.0" encoding="UTF-8" standalone="no"?>
<!-- Created with Inkscape (http://www.inkscape.org/) -->

<svg
   xmlns:dc="http://purl.org/dc/elements/1.1/"
   xmlns:cc="http://creativecommons.org/ns#"
   xmlns:rdf="http://www.w3.org/1999/02/22-rdf-syntax-ns#"
   xmlns:svg="http://www.w3.org/2000/svg"
   xmlns="http://www.w3.org/2000/svg"
   xmlns:sodipodi="http://sodipodi.sourceforge.net/DTD/sodipodi-0.dtd"
   xmlns:inkscape="http://www.inkscape.org/namespaces/inkscape"
   width="135"
   height="135"
   viewBox="0 0 35.718753 35.718749"
   version="1.1"
   id="svg8"
   inkscape:version="0.92.5 (2060ec1f9f, 2020-04-08)"
   sodipodi:docname="AppIconSmall.svg"
   inkscape:export-filename="/home/namenlos/Development/gitClient/build/icon.png"
   inkscape:export-xdpi="364.09"
   inkscape:export-ydpi="364.09">
  <defs
     id="defs2">
    <inkscape:path-effect
       simplifyJustCoalesce="false"
       simplifyindividualpaths="false"
       simplify_just_coalesce="false"
       simplify_individual_paths="false"
       helper_size="0"
       smooth_angles="360"
       threshold="0.0001"
       steps="1"
       is_visible="true"
       id="path-effect872"
       effect="simplify" />
    <inkscape:path-effect
       simplifyJustCoalesce="false"
       simplifyindividualpaths="false"
       simplify_just_coalesce="false"
       simplify_individual_paths="false"
       helper_size="0"
       smooth_angles="360"
       threshold="0.0001"
       steps="1"
       is_visible="true"
       id="path-effect868"
       effect="simplify" />
    <inkscape:path-effect
       effect="simplify"
       id="path-effect864"
       is_visible="true"
       steps="1"
       threshold="0.0001"
       smooth_angles="360"
       helper_size="0"
       simplify_individual_paths="false"
       simplify_just_coalesce="false"
       simplifyindividualpaths="false"
       simplifyJustCoalesce="false" />
    <inkscape:path-effect
       effect="simplify"
       id="path-effect860"
       is_visible="true"
       steps="1"
       threshold="0.0001"
       smooth_angles="360"
       helper_size="0"
       simplify_individual_paths="false"
       simplify_just_coalesce="false"
       simplifyindividualpaths="false"
       simplifyJustCoalesce="false" />
    <inkscape:path-effect
       simplifyJustCoalesce="false"
       simplifyindividualpaths="false"
       simplify_just_coalesce="false"
       simplify_individual_paths="false"
       helper_size="0"
       smooth_angles="360"
       threshold="0.0001"
       steps="1"
       is_visible="true"
       id="path-effect856"
       effect="simplify" />
    <inkscape:path-effect
       effect="simplify"
       id="path-effect852"
       is_visible="true"
       steps="1"
       threshold="0.0001"
       smooth_angles="360"
       helper_size="0"
       simplify_individual_paths="false"
       simplify_just_coalesce="false"
       simplifyindividualpaths="false"
       simplifyJustCoalesce="false" />
    <inkscape:path-effect
       simplifyJustCoalesce="false"
       simplifyindividualpaths="false"
       simplify_just_coalesce="false"
       simplify_individual_paths="false"
       helper_size="0"
       smooth_angles="360"
       threshold="0.0001"
       steps="1"
       is_visible="true"
       id="path-effect848"
       effect="simplify" />
    <inkscape:path-effect
       effect="simplify"
       id="path-effect844"
       is_visible="true"
       steps="1"
       threshold="0.0001"
       smooth_angles="360"
       helper_size="0"
       simplify_individual_paths="false"
       simplify_just_coalesce="false"
       simplifyindividualpaths="false"
       simplifyJustCoalesce="false" />
    <inkscape:path-effect
       effect="simplify"
       id="path-effect840"
       is_visible="true"
       steps="1"
       threshold="0.0001"
       smooth_angles="360"
       helper_size="0"
       simplify_individual_paths="false"
       simplify_just_coalesce="false"
       simplifyindividualpaths="false"
       simplifyJustCoalesce="false" />
    <inkscape:path-effect
       effect="simplify"
       id="path-effect836"
       is_visible="true"
       steps="1"
       threshold="0.0001"
       smooth_angles="360"
       helper_size="0"
       simplify_individual_paths="false"
       simplify_just_coalesce="false"
       simplifyindividualpaths="false"
       simplifyJustCoalesce="false" />
    <inkscape:path-effect
       effect="simplify"
       id="path-effect832"
       is_visible="true"
       steps="1"
       threshold="0.0001"
       smooth_angles="360"
       helper_size="0"
       simplify_individual_paths="false"
       simplify_just_coalesce="false"
       simplifyindividualpaths="false"
       simplifyJustCoalesce="false" />
    <inkscape:path-effect
       effect="simplify"
       id="path-effect828"
       is_visible="true"
       steps="1"
       threshold="0.0001"
       smooth_angles="360"
       helper_size="0"
       simplify_individual_paths="false"
       simplify_just_coalesce="false"
       simplifyindividualpaths="false"
       simplifyJustCoalesce="false" />
  </defs>
  <sodipodi:namedview
     id="base"
     pagecolor="#202020"
     bordercolor="#666666"
     borderopacity="1.0"
     inkscape:pageopacity="0"
     inkscape:pageshadow="2"
     inkscape:zoom="1.979899"
     inkscape:cx="99.405623"
     inkscape:cy="166.30173"
     inkscape:document-units="mm"
     inkscape:current-layer="layer1"
     showgrid="false"
     inkscape:window-width="2560"
     inkscape:window-height="1361"
     inkscape:window-x="0"
     inkscape:window-y="0"
     inkscape:window-maximized="1"
     fit-margin-top="0"
     fit-margin-left="0"
     fit-margin-right="0"
     fit-margin-bottom="0"
     units="px" />
  <metadata
     id="metadata5">
    <rdf:RDF>
      <cc:Work
         rdf:about="">
        <dc:format>image/svg+xml</dc:format>
        <dc:type
           rdf:resource="http://purl.org/dc/dcmitype/StillImage" />
        <dc:title></dc:title>
      </cc:Work>
    </rdf:RDF>
  </metadata>
  <g
     inkscape:label="Ebene 1"
     inkscape:groupmode="layer"
     id="layer1"
     transform="translate(-12.682874,-178.18605)">
    <circle
       style="color:#000000;clip-rule:nonzero;display:inline;overflow:visible;visibility:visible;opacity:1;isolation:auto;mix-blend-mode:normal;color-interpolation:sRGB;color-interpolation-filters:linearRGB;solid-color:#000000;solid-opacity:1;fill:#ffffff;fill-opacity:1;fill-rule:evenodd;stroke:none;stroke-width:1;stroke-linecap:round;stroke-linejoin:miter;stroke-miterlimit:4;stroke-dasharray:none;stroke-dashoffset:0;stroke-opacity:1;color-rendering:auto;image-rendering:auto;shape-rendering:auto;text-rendering:auto;enable-background:accumulate"
       id="path926"
       cx="30.622211"
       cy="195.96547"
       r="17.439337" />
    <g
       id="g886"
       transform="matrix(0.18640099,0,0,0.18640099,11.974996,170.04583)"
       style="stroke:#646464;stroke-opacity:1">
      <path
         sodipodi:nodetypes="ccscccsscccccscscscccccc"
         inkscape:original-d="m 159.89207,194.57158 c -5.53519,10.85433 -11.8653,12.492 -28.73433,7.74538 -0.56336,10.63482 -0.59891,14.32402 -10.75778,17.70703 -11.56915,3.85264 -42.215488,0.42534 -55.880576,-10.70616 3.131764,-2.94 2.476996,-2.10541 3.131764,-2.94 -8.698731,-7.95707 -38.612486,-12.53727 -45.465843,-38.38905 9.04918,1.81062 10.156848,-0.32967 8.406249,-4.32073 -2.289615,-5.21991 -7.486206,-10.86574 -12.347829,-16.65054 -2.38603,-2.83912 -7.554557,-4.47873 -6.617893,-8.56839 7.424194,-4.73841 4.780252,-2.00259 12.837319,-6.40568 -0.762828,-7.34305 -4.073226,-10.47227 -6.946036,-15.66685 4.497726,-3.02122 4.865534,-2.20109 8.320922,-2.22399 1.565507,-3.1412 1.233502,-6.84811 1.744771,-11.25016 4.196537,-3.457106 7.594789,-6.027605 8.312268,-8.426379 3.653116,-12.213584 -3.578111,-36.92398 -3.578111,-36.92398 0,0 14.009919,17.82454 25.977136,18.365123 8.578111,0.38749 20.838132,5.502132 27.306472,-5.589631 6.588327,1.977111 7.343085,10.516894 9.491872,10.387074 2.700418,-0.163147 6.216505,-5.65364 6.606165,-8.466675 8.29782,3.959404 10.69484,11.163282 14.34324,15.023585 2.31204,-1.351453 3.72475,-1.155787 8.37676,-11.243334 9.9974,6.616799 2.99903,15.391646 11.72245,22.0919 0.63851,-0.716475 2.20278,-3.084485 3.52166,-6.059398 3.18978,5.043172 5.39151,8.582355 9.37845,18.883365"
         inkscape:path-effect="#path-effect828"
         inkscape:connector-curvature="0"
         id="path826"
         d="m 159.89207,194.57158 c -1.56797,3.05144 -3.50336,6.06973 -6.38575,8.04134 -2.49002,1.70322 -5.57398,2.2804 -8.54643,2.21888 -4.49539,-0.093 -8.93257,-1.05345 -13.21342,-2.3506 -0.32355,-0.098 -0.57565,-0.32049 -0.60834,0.20679 -0.18208,2.93648 -0.23326,5.9076 -0.89605,8.78767 -0.44073,1.91515 -1.39904,3.73942 -2.90217,5.03484 -2.0628,1.77775 -4.64221,2.82575 -7.21458,3.60245 -3.76316,1.13624 -7.72771,1.42173 -11.6372,1.43075 -7.94563,0.0183 -15.898844,-0.98997 -23.58288,-2.99455 -6.157993,-1.60647 -12.469805,-3.46289 -17.633466,-7.23434 -0.8758,-0.63967 -3.355415,-1.42367 -2.67969,-2.0652 0.891435,-0.84632 1.734626,-1.75913 2.73389,-2.47375 0.738517,-0.52815 -0.362064,-1.00472 -0.788694,-1.31651 -3.035499,-2.21837 -6.48116,-3.77994 -9.875255,-5.35528 -7.400539,-3.43489 -14.855434,-6.99262 -21.237324,-12.16135 -5.120018,-4.14673 -9.341466,-9.48055 -11.806106,-15.62381 -0.566482,-1.41199 -2.928272,-4.61194 -1.4333,-4.33013 2.143598,0.40408 4.336943,0.83204 6.522274,0.58039 0.977815,-0.1126 2.172047,-0.47632 2.469571,-1.52673 0.331518,-1.17042 -0.135606,-2.38005 -0.61256,-3.43558 -1.529295,-3.38443 -3.790921,-6.37072 -6.125588,-9.23212 -2.119307,-2.59745 -4.186533,-5.24702 -6.487097,-7.68467 -1.704307,-1.80586 -4.053031,-2.89939 -5.59012,-4.87762 -0.730469,-0.94011 -1.751208,-2.72531 -0.735953,-3.36333 2.144097,-1.34743 4.323203,-2.67666 6.730786,-3.52471 2.127801,-0.7495 6.322015,-0.64066 6.106533,-2.88097 -0.294887,-3.06586 -1.248727,-6.0528 -2.742063,-8.74904 -1.308183,-2.36194 -6.473708,-5.45467 -4.203973,-6.91781 1.444537,-0.93119 2.908852,-2.03542 4.652805,-2.25174 1.219438,-0.15126 3.124828,1.1243 3.668117,0.0278 1.238666,-2.50007 1.302432,-5.35037 1.476608,-8.07694 0.06768,-1.05939 -0.545262,-2.49083 0.268163,-3.17322 2.251155,-1.88851 4.649277,-3.631855 6.643349,-5.801685 0.838902,-0.912843 1.522638,-1.981389 1.832256,-3.206217 1.02511,-4.05527 1.014931,-8.293107 0.700306,-12.435301 -0.545865,-7.186593 -1.918386,-14.290517 -3.724006,-21.259212 -0.229378,-0.885272 -1.295044,-3.357245 -0.717748,-2.647944 3.179428,3.906435 6.679801,7.570783 10.566863,10.775552 3.393498,2.79784 7.090923,5.363087 11.287985,6.791498 1.556994,0.529901 3.196943,0.710227 4.834026,0.840035 4.968697,0.39398 9.870527,1.689655 14.886443,1.426505 3.007572,-0.157786 6.03308,-1.100176 8.382302,-3.043186 1.348035,-1.114942 1.649288,-4.497471 3.325989,-4.014912 2.217445,0.638187 3.987197,2.27379 5.293984,4.133905 1.155606,1.644921 1.848547,3.556715 2.912211,5.253246 0.328212,0.523494 0.828301,1.124012 1.541111,0.969265 1.315081,-0.285497 2.346027,-1.270168 3.175246,-2.269139 1.350365,-1.626801 2.548375,-3.47156 3.048295,-5.536575 0.0865,-0.357308 -0.0311,-0.709121 0.51186,-0.442355 3.26587,1.604509 5.99322,4.12206 8.2323,6.970293 1.82451,2.320878 3.15331,5.015241 5.13776,7.203091 0.29712,0.327574 0.42872,0.711614 1.01249,0.424098 1.12703,-0.555082 2.19551,-1.261712 3.0025,-2.240186 1.63299,-1.979996 2.79873,-4.289365 3.91731,-6.583374 0.35265,-0.723223 0.35756,-2.618921 1.03297,-2.181619 2.26402,1.46587 4.15834,3.558247 5.16511,6.088761 1.46336,3.678147 1.11173,7.820413 2.78742,11.439314 0.83952,1.813071 2.52005,6.111982 3.76992,4.563825 1.22183,-1.513421 1.97957,-3.336315 3.01786,-4.974294 0.19016,-0.29999 0.42423,-1.208658 0.54114,-1.026073 1.97952,3.09163 3.84862,6.259144 5.42712,9.577714 1.4382,3.0236 2.70345,6.12602 3.91399,9.24662"
         style="fill:none;fill-rule:evenodd;stroke:#646464;stroke-width:8.04716778;stroke-linecap:round;stroke-linejoin:miter;stroke-miterlimit:4;stroke-dasharray:none;stroke-opacity:1" />
      <path
         sodipodi:nodetypes="cscsc"
         inkscape:original-d="m 127.22029,180.60412 c -5.92495,-49.19857 24.6955,-67.88117 51.73436,-60.74798 3.73659,0.98576 4.93392,-4.52241 9.06946,-4.33215 -0.96991,4.1081 -3.97052,8.04319 -2.92136,11.75056 12.57576,44.43834 -25.68271,64.20847 -57.88246,53.32957 z"
         inkscape:path-effect="#path-effect832"
         inkscape:connector-curvature="0"
         id="path830"
         d="m 127.22029,180.60412 c -1.0769,-8.99886 -1.11478,-18.20426 0.75222,-27.10419 1.51123,-7.20398 4.38082,-14.1976 8.88167,-20.0642 3.94612,-5.14354 9.20395,-9.27176 15.15907,-11.85007 7.02928,-3.04337 14.92654,-3.81116 22.47977,-2.66742 1.59143,0.24098 3.14616,0.66683 4.72024,0.99667 0.80593,0.16888 1.65392,-0.029 2.34898,-0.45749 1.18769,-0.73225 2.07361,-1.83426 3.14648,-2.71087 0.81922,-0.66936 1.81675,-1.29217 2.88988,-1.22203 0.17626,0.0115 0.45965,-0.13038 0.37858,0.19191 -0.66457,2.64206 -2.06456,5.02768 -2.76775,7.65639 -0.3385,1.2654 -0.46796,2.62494 -0.10668,3.90173 2.04671,7.23325 3.02727,14.86013 2.08747,22.35542 -0.7714,6.15224 -2.98932,12.14243 -6.59222,17.20828 -3.85179,5.41581 -9.25289,9.63764 -15.27477,12.40214 -7.91765,3.63481 -16.82728,4.86615 -25.47053,4.05575 -4.29632,-0.40283 -8.54447,-1.31085 -12.63241,-2.69202 z"
         style="fill:none;fill-rule:evenodd;stroke:#646464;stroke-width:8.04716778;stroke-linecap:butt;stroke-linejoin:miter;stroke-miterlimit:4;stroke-dasharray:none;stroke-opacity:1" />
      <path
         sodipodi:nodetypes="cccc"
         inkscape:original-d="m 55.05509,91.192972 c 26.522695,32.000098 36.951402,51.244588 59.96287,84.801218 m 11.10577,19.00631 c 5.54319,8.92427 10.15151,12.80767 15.23936,21.86854"
         inkscape:path-effect="#path-effect836"
         inkscape:connector-curvature="0"
         id="path834"
         d="m 55.05509,91.192972 c 9.636542,11.599728 18.767417,23.618988 27.339128,36.027098 9.289395,13.447 18.070292,27.23475 27.198942,40.79003 1.79728,2.66881 3.60508,5.33053 5.4248,7.98409 m 11.10577,19.00631 c 2.27384,3.69607 4.89387,7.16108 7.55767,10.58128 2.60151,3.34022 5.08385,6.78328 7.20607,10.45266 0.16031,0.27718 0.31884,0.5554 0.47562,0.8346"
         style="fill:none;fill-rule:evenodd;stroke:#646464;stroke-width:8.04716778;stroke-linecap:round;stroke-linejoin:miter;stroke-miterlimit:4;stroke-dasharray:none;stroke-opacity:1" />
      <path
         sodipodi:nodetypes="cc"
         inkscape:original-d="m 172.38884,133.43105 c -39.73458,45.63346 -52.81622,57.19209 -62.00653,56.92841"
         inkscape:path-effect="#path-effect840"
         inkscape:connector-curvature="0"
         id="path838"
         d="m 172.38884,133.43105 c -9.19523,10.54127 -18.40683,21.07578 -28.01769,31.24168 -5.07411,5.36715 -10.19353,10.71094 -15.73471,15.60029 -3.04257,2.68466 -6.17152,5.31945 -9.68034,7.37708 -2.25932,1.3249 -4.72493,2.4569 -7.36574,2.6761 -0.40166,0.0333 -0.80516,0.0448 -1.20805,0.0333"
         style="fill:none;fill-rule:evenodd;stroke:#646464;stroke-width:8.04716778;stroke-linecap:round;stroke-linejoin:miter;stroke-miterlimit:4;stroke-dasharray:none;stroke-opacity:1" />
      <path
         transform="translate(-8.0781729,-8.9714771)"
         style="fill:none;fill-rule:evenodd;stroke:#646464;stroke-width:5.36477852;stroke-linecap:round;stroke-linejoin:miter;stroke-miterlimit:4;stroke-dasharray:none;stroke-opacity:1"
         d="m 114.52678,166.38248 c 1.20527,-7.85413 2.27695,-15.73769 2.82979,-23.66793 0.39685,-5.69259 0.45743,-11.41149 0.0905,-17.10794 -0.28336,-4.3988 -0.81304,-8.77728 -1.40836,-13.14339"
         id="path846"
         inkscape:connector-curvature="0"
         inkscape:path-effect="#path-effect848"
         inkscape:original-d="m 114.52678,166.38248 c 4.24167,-27.45421 3.6728,-38.05649 1.51191,-53.91926"
         sodipodi:nodetypes="cc" />
      <path
         sodipodi:nodetypes="cc"
         inkscape:original-d="M 103.73156,147.38366 C 75.692507,142.65382 64.504829,143.52785 33.828866,122.94196"
         inkscape:path-effect="#path-effect864"
         inkscape:connector-curvature="0"
         id="path862"
         d="m 103.73156,147.38366 c -6.726772,-1.14757 -13.48945,-2.07123 -20.216007,-3.21959 -5.94444,-1.01484 -11.852504,-2.32507 -17.571933,-4.25949 -8.334251,-2.81881 -16.163874,-6.93837 -23.651376,-11.52037 -2.861135,-1.75088 -5.678048,-3.57335 -8.463378,-5.44225"
         style="fill:none;fill-rule:evenodd;stroke:#646464;stroke-width:5.36477852;stroke-linecap:round;stroke-linejoin:miter;stroke-miterlimit:4;stroke-dasharray:none;stroke-opacity:1"
         transform="translate(7.3972285,27.775508)" />
      <path
         transform="translate(3.8126241,13.637424)"
         style="fill:none;fill-rule:evenodd;stroke:#646464;stroke-width:5.36477852;stroke-linecap:round;stroke-linejoin:miter;stroke-miterlimit:4;stroke-dasharray:none;stroke-opacity:1"
         d="m 82.707994,125.77678 c -4.581018,-0.96108 -9.118578,-2.21796 -13.425198,-4.07377 -4.337383,-1.86907 -8.375795,-4.34823 -12.315782,-6.93368 -4.258663,-2.79457 -8.462063,-5.67211 -12.709605,-8.4835 -0.434123,-0.28734 -0.868579,-0.57418 -1.30339,-0.86047"
         id="path866"
         inkscape:connector-curvature="0"
         inkscape:path-effect="#path-effect868"
         inkscape:original-d="M 82.707994,125.77678 C 66.458101,122.35786 61.819851,117.84728 42.954019,105.42536"
         sodipodi:nodetypes="cc" />
      <path
         transform="translate(-14.4857,-25.809928)"
         style="fill:none;fill-rule:evenodd;stroke:#646464;stroke-width:5.36477852;stroke-linecap:round;stroke-linejoin:miter;stroke-miterlimit:4;stroke-dasharray:none;stroke-opacity:1"
         d="m 97.139875,149.02232 c -0.287563,-5.59733 -0.656206,-11.19708 -1.402684,-16.7546 -0.536293,-3.99269 -1.311394,-7.95313 -2.326297,-11.85206 -0.422841,-1.62442 -0.884353,-3.23863 -1.373686,-4.84423"
         id="path870"
         inkscape:connector-curvature="0"
         inkscape:path-effect="#path-effect872"
         inkscape:original-d="M 97.139875,149.02232 C 96.380513,133.96855 95.20055,125.95195 92.037208,115.57143"
         sodipodi:nodetypes="cc" />
    </g>
  </g>
</svg>
