<?xml version="1.0" encoding="UTF-8" standalone="no"?>
<svg
   xmlns:dc="http://purl.org/dc/elements/1.1/"
   xmlns:cc="http://creativecommons.org/ns#"
   xmlns:rdf="http://www.w3.org/1999/02/22-rdf-syntax-ns#"
   xmlns:svg="http://www.w3.org/2000/svg"
   xmlns="http://www.w3.org/2000/svg"
   xmlns:sodipodi="http://sodipodi.sourceforge.net/DTD/sodipodi-0.dtd"
   xmlns:inkscape="http://www.inkscape.org/namespaces/inkscape"
   id="svg8"
   version="1.1"
   viewBox="0 0 24 24"
   height="24"
   width="24"
   sodipodi:docname="BranchIcon.svg"
   inkscape:version="0.92.5 (2060ec1f9f, 2020-04-08)">
  <sodipodi:namedview
     pagecolor="#ffffff"
     bordercolor="#666666"
     borderopacity="1"
     objecttolerance="10"
     gridtolerance="10"
     guidetolerance="10"
     inkscape:pageopacity="0"
     inkscape:pageshadow="2"
     inkscape:window-width="2560"
     inkscape:window-height="1361"
     id="namedview821"
     showgrid="false"
     inkscape:zoom="47.375"
     inkscape:cx="12"
     inkscape:cy="12"
     inkscape:window-x="0"
     inkscape:window-y="0"
     inkscape:window-maximized="1"
     inkscape:current-layer="svg8" />
  <defs
     id="defs2" />
  <metadata
     id="metadata5">
    <rdf:RDF>
      <cc:Work
         rdf:about="">
        <dc:format>image/svg+xml</dc:format>
        <dc:type
           rdf:resource="http://purl.org/dc/dcmitype/StillImage" />
        <dc:title />
      </cc:Work>
    </rdf:RDF>
  </metadata>
  <g
     transform="translate(0,-290.64998)"
     id="layer1">
    <g
       transform="matrix(3.4203533,0,0,3.4203533,0.6047041,-702.38514)"
       id="g2429">
      <path
         id="path2385"
         transform="matrix(0.26458333,0,0,0.26458333,0,290.64998)"
         d="M 11.257812,1.2050781 A 1.0001001,1.0001001 0 0 0 10.267578,2.2167969 V 21.84375 21.88281 a 1.0012071,1.0012071 0 0 0 2.001953,0.04297 c 0.0934,-2.218582 -0.05748,-4.558098 0.640625,-6.871093 0.555576,-1.840719 1.636431,-3.695949 3.876953,-5.5195318 0.192848,0.4793568 0.305809,0.9933848 0.300782,1.5312498 L 20.994141,5.2753906 14.267578,7.15625 c 0.511492,0.1713412 0.964932,0.4445106 1.359375,0.7773438 -1.555205,1.3248575 -2.573318,2.7194422 -3.357422,4.1230472 V 2.2167969 A 1.0001001,1.0001001 0 0 0 11.257812,1.2050781 Z"
         fill="currentColor"
         fill-opacity="0.4"
         stroke="currentColor"
         stroke-width="0.3"
      />
    </g>
  </g>
</svg>
