<?xml version="1.0" encoding="UTF-8" standalone="no"?>
<svg
   xmlns:dc="http://purl.org/dc/elements/1.1/"
   xmlns:cc="http://creativecommons.org/ns#"
   xmlns:rdf="http://www.w3.org/1999/02/22-rdf-syntax-ns#"
   xmlns:svg="http://www.w3.org/2000/svg"
   xmlns="http://www.w3.org/2000/svg"
   id="svg2465"
   version="1.1"
   viewBox="0 0 24 24"
   height="24"
   width="24">
  <defs
     id="defs2459" />
  <metadata
     id="metadata2462">
    <rdf:RDF>
      <cc:Work
         rdf:about="">
        <dc:format>image/svg+xml</dc:format>
        <dc:type
           rdf:resource="http://purl.org/dc/dcmitype/StillImage" />
        <dc:title></dc:title>
      </cc:Work>
    </rdf:RDF>
  </metadata>
  <g
     id="g3536"
      fill="currentColor"
      fill-opacity="0.4"
      stroke="currentColor"
      stroke-width="0.3">
    <path
       id="path3172"
       d="m 6.1167951,20.403927 c -1.2691591,-0.01796 -1.2691591,1.894948 0,1.876985 H 17.883205 c 1.269159,0.01796 1.269159,-1.894948 0,-1.876985 z" />
    <path
       id="path3010"
       d="m 12.180614,18.837948 c -0.677285,-1.81383 -1.328822,-3.614083 -1.998572,-5.43532 0.3555,0.256613 0.747578,0.426497 1.153147,0.531092 0.0148,-4.602855 0.0065,-5.892481 0.0065,-10.516189 0,-1.200234 1.660077,-1.062832 1.660077,0.0032 v 3.187521 c 0.813645,-1.472113 2.147765,-2.185432 3.587777,-2.787011 1.049099,-0.43819 1.678771,0.966684 0.696425,1.514341 -3.491497,1.946684 -4.149206,2.392996 -4.27934,8.606015 0.414452,-0.103945 0.814508,-0.276103 1.172581,-0.539212 -0.655013,1.78687 -1.388861,3.779257 -1.998573,5.43532 z" />
  </g>
</svg>
